<svg width="144" height="42" viewBox="0 0 144 42" fill="none" xmlns="http://www.w3.org/2000/svg">
<rect y="2" width="144" height="39" rx="17" fill="#BA0404"/>
<path d="M25.0112 14.097C25.0112 14.601 24.8672 15.006 24.5792 15.312C24.3092 15.6 23.9942 15.744 23.6342 15.744C23.2922 15.744 22.9052 15.672 22.4732 15.528C22.5452 15.24 22.5812 14.961 22.5812 14.691C22.5812 14.025 22.2302 13.413 21.5282 12.855C20.8442 12.279 19.8812 11.991 18.6392 11.991C17.4152 11.991 16.4342 12.252 15.6962 12.774C14.9582 13.296 14.5892 13.998 14.5892 14.88C14.5892 15.744 14.9672 16.5 15.7232 17.148C16.4792 17.778 17.3972 18.327 18.4772 18.795C19.5752 19.263 20.6642 19.74 21.7442 20.226C22.8422 20.712 23.7692 21.333 24.5252 22.089C25.2812 22.827 25.6592 23.673 25.6592 24.627C25.6592 26.229 24.9572 27.57 23.5532 28.65C22.1672 29.712 20.5022 30.243 18.5582 30.243C16.6142 30.243 15.0032 29.811 13.7252 28.947C12.4472 28.065 11.8082 26.958 11.8082 25.626C11.8082 25.05 11.9702 24.582 12.2942 24.222C12.6182 23.844 13.0502 23.655 13.5902 23.655C14.1302 23.655 14.5532 23.871 14.8592 24.303C14.4452 24.681 14.2382 25.212 14.2382 25.896C14.2382 26.58 14.6162 27.192 15.3722 27.732C16.1282 28.272 17.1632 28.542 18.4772 28.542C19.8092 28.542 20.9612 28.2 21.9332 27.516C22.9052 26.832 23.3912 25.995 23.3912 25.005C23.3912 24.375 23.1122 23.799 22.5542 23.277C22.0142 22.755 21.3302 22.323 20.5022 21.981C19.6922 21.639 18.8102 21.252 17.8562 20.82C16.9022 20.388 16.0112 19.956 15.1832 19.524C14.3732 19.092 13.6892 18.516 13.1312 17.796C12.5912 17.058 12.3212 16.239 12.3212 15.339C12.3212 13.881 12.9602 12.684 14.2382 11.748C15.5342 10.794 17.0732 10.317 18.8552 10.317C20.6372 10.317 22.1042 10.686 23.2562 11.424C24.4262 12.162 25.0112 13.053 25.0112 14.097ZM41.0101 17.931V28.326C41.0101 28.83 41.2441 29.181 41.7121 29.379C41.3341 29.955 40.8571 30.243 40.2811 30.243C39.2911 30.243 38.7961 29.613 38.7961 28.353V27.651C37.7881 29.379 36.3211 30.243 34.3951 30.243C31.3531 30.243 29.8321 28.695 29.8321 25.599V17.985C29.8321 17.463 29.6071 17.103 29.1571 16.905C29.4991 16.329 29.9671 16.041 30.5611 16.041C31.5691 16.041 32.0731 16.671 32.0731 17.931V25.464C32.0731 27.372 33.0091 28.326 34.8811 28.326C35.7451 28.326 36.5191 28.065 37.2031 27.543C37.9051 27.021 38.4361 26.292 38.7961 25.356V17.985C38.7961 17.463 38.5621 17.103 38.0941 16.905C38.5081 16.329 38.9851 16.041 39.5251 16.041C40.5151 16.041 41.0101 16.671 41.0101 17.931ZM51.1554 28.461C52.5054 28.461 53.5764 27.966 54.3684 26.976C55.1604 25.986 55.5564 24.672 55.5564 23.034C55.5564 21.396 55.1784 20.136 54.4224 19.254C53.6664 18.354 52.7304 17.904 51.6144 17.904C49.9944 17.904 48.7884 18.714 47.9964 20.334L47.9694 25.626C47.9694 27.516 49.0314 28.461 51.1554 28.461ZM47.9964 18.093C48.9864 16.725 50.3004 16.041 51.9384 16.041C53.5944 16.041 54.9984 16.635 56.1504 17.823C57.3024 18.993 57.8784 20.676 57.8784 22.872C57.8784 25.05 57.2214 26.814 55.9074 28.164C54.5934 29.532 53.0274 30.216 51.2094 30.216C49.3914 30.216 48.0234 29.82 47.1054 29.028C46.1874 28.218 45.7284 27.084 45.7284 25.626L45.7554 11.397C45.7554 10.857 45.5304 10.497 45.0804 10.317C45.4584 9.759 45.9354 9.48 46.5114 9.48C47.5194 9.48 48.0234 10.101 48.0234 11.343L47.9964 18.093ZM70.33 19.767C70.042 20.001 69.691 20.118 69.277 20.118C68.863 20.118 68.512 20.01 68.224 19.794C68.332 19.614 68.386 19.353 68.386 19.011C68.386 18.669 68.179 18.336 67.765 18.012C67.351 17.688 66.73 17.526 65.902 17.526C65.074 17.526 64.417 17.715 63.931 18.093C63.445 18.453 63.202 18.885 63.202 19.389C63.202 19.893 63.472 20.352 64.012 20.766C64.552 21.162 65.2 21.531 65.956 21.873C66.712 22.197 67.468 22.548 68.224 22.926C68.998 23.304 69.655 23.79 70.195 24.384C70.735 24.96 71.005 25.608 71.005 26.328C71.005 27.39 70.501 28.308 69.493 29.082C68.485 29.856 67.207 30.243 65.659 30.243C64.111 30.243 62.851 29.946 61.879 29.352C60.907 28.758 60.421 27.993 60.421 27.057C60.421 26.499 60.574 26.067 60.88 25.761C61.204 25.437 61.582 25.275 62.014 25.275C62.464 25.275 62.815 25.428 63.067 25.734C62.815 26.076 62.689 26.49 62.689 26.976C62.689 27.462 62.932 27.885 63.418 28.245C63.922 28.587 64.642 28.758 65.578 28.758C66.532 28.758 67.288 28.56 67.846 28.164C68.422 27.75 68.71 27.255 68.71 26.679C68.71 26.085 68.44 25.572 67.9 25.14C67.378 24.708 66.739 24.339 65.983 24.033C65.227 23.709 64.462 23.376 63.688 23.034C62.932 22.674 62.284 22.224 61.744 21.684C61.222 21.144 60.961 20.532 60.961 19.848C60.961 18.768 61.429 17.868 62.365 17.148C63.301 16.41 64.444 16.041 65.794 16.041C67.162 16.041 68.332 16.293 69.304 16.797C70.276 17.283 70.762 17.931 70.762 18.741C70.78 19.173 70.636 19.515 70.33 19.767ZM84.4768 18.633C84.4768 19.065 84.3508 19.407 84.0988 19.659C83.8468 19.911 83.5408 20.037 83.1808 20.037C82.8208 20.037 82.5238 19.965 82.2898 19.821C82.3438 19.623 82.3708 19.425 82.3708 19.227C82.3708 18.129 81.6958 17.58 80.3458 17.58C79.2478 17.58 78.2668 18.084 77.4028 19.092C76.5388 20.1 76.1068 21.468 76.1068 23.196C76.1068 24.906 76.5028 26.193 77.2948 27.057C78.1048 27.921 79.0948 28.353 80.2648 28.353C81.7588 28.353 83.0008 27.876 83.9908 26.922C84.2248 27.12 84.3418 27.381 84.3418 27.705C84.3418 28.281 83.8918 28.848 82.9918 29.406C82.0918 29.964 81.0658 30.243 79.9138 30.243C78.2398 30.243 76.8088 29.667 75.6208 28.515C74.4328 27.363 73.8388 25.725 73.8388 23.601C73.8388 21.459 74.5048 19.668 75.8368 18.228C77.1868 16.77 78.8248 16.041 80.7508 16.041C81.8848 16.041 82.7848 16.293 83.4508 16.797C84.1348 17.301 84.4768 17.913 84.4768 18.633ZM90.4765 17.931V18.93C91.2325 17.004 92.4835 16.041 94.2295 16.041C95.0755 16.041 95.7325 16.257 96.2005 16.689C96.6685 17.121 96.9025 17.625 96.9025 18.201C96.9025 18.759 96.7585 19.191 96.4705 19.497C96.1825 19.785 95.8855 19.929 95.5795 19.929C95.2735 19.929 94.9945 19.893 94.7425 19.821C94.7785 19.641 94.7965 19.407 94.7965 19.119C94.7965 18.219 94.3465 17.769 93.4465 17.769C92.8525 17.769 92.2675 18.066 91.6915 18.66C91.1155 19.254 90.7105 20.163 90.4765 21.387V28.326C90.4765 28.848 90.7015 29.199 91.1515 29.379C90.7735 29.955 90.3055 30.243 89.7475 30.243C88.7395 30.243 88.2355 29.613 88.2355 28.353V17.985C88.2355 17.463 88.0105 17.103 87.5605 16.905C87.9025 16.329 88.3705 16.041 88.9645 16.041C89.9725 16.041 90.4765 16.671 90.4765 17.931ZM100.788 10.29C101.256 10.29 101.634 10.425 101.922 10.695C102.228 10.947 102.381 11.307 102.381 11.775C102.381 12.225 102.183 12.639 101.787 13.017C101.409 13.377 100.977 13.557 100.491 13.557C100.005 13.557 99.6087 13.413 99.3027 13.125C98.9967 12.837 98.8437 12.459 98.8437 11.991C98.8437 11.523 99.0507 11.127 99.4647 10.803C99.8967 10.461 100.338 10.29 100.788 10.29ZM101.841 17.931V28.326C101.841 28.848 102.066 29.199 102.516 29.379C102.138 29.955 101.67 30.243 101.112 30.243C100.104 30.243 99.5997 29.613 99.5997 28.353V17.985C99.5997 17.463 99.3747 17.103 98.9247 16.905C99.2667 16.329 99.7347 16.041 100.329 16.041C101.337 16.041 101.841 16.671 101.841 17.931ZM112.037 28.461C113.387 28.461 114.458 27.966 115.25 26.976C116.042 25.986 116.438 24.672 116.438 23.034C116.438 21.396 116.06 20.136 115.304 19.254C114.548 18.354 113.612 17.904 112.496 17.904C110.876 17.904 109.67 18.714 108.878 20.334L108.851 25.626C108.851 27.516 109.913 28.461 112.037 28.461ZM108.878 18.093C109.868 16.725 111.182 16.041 112.82 16.041C114.476 16.041 115.88 16.635 117.032 17.823C118.184 18.993 118.76 20.676 118.76 22.872C118.76 25.05 118.103 26.814 116.789 28.164C115.475 29.532 113.909 30.216 112.091 30.216C110.273 30.216 108.905 29.82 107.987 29.028C107.069 28.218 106.61 27.084 106.61 25.626L106.637 11.397C106.637 10.857 106.412 10.497 105.962 10.317C106.34 9.759 106.817 9.48 107.393 9.48C108.401 9.48 108.905 10.101 108.905 11.343L108.878 18.093ZM128.62 21.684C129.358 21.63 129.727 21.207 129.727 20.415C129.727 19.605 129.493 18.939 129.025 18.417C128.575 17.877 127.936 17.607 127.108 17.607C126.28 17.607 125.524 18.003 124.84 18.795C124.156 19.587 123.733 20.685 123.571 22.089L128.62 21.684ZM123.517 23.25C123.517 25.014 123.895 26.319 124.651 27.165C125.425 28.011 126.523 28.434 127.945 28.434C129.367 28.434 130.546 27.966 131.482 27.03C131.752 27.174 131.887 27.417 131.887 27.759C131.887 28.353 131.455 28.92 130.591 29.46C129.727 29.982 128.701 30.243 127.513 30.243C125.659 30.243 124.138 29.658 122.95 28.488C121.762 27.318 121.168 25.68 121.168 23.574C121.168 21.45 121.807 19.668 123.085 18.228C124.381 16.77 125.866 16.041 127.54 16.041C128.872 16.041 129.952 16.5 130.78 17.418C131.626 18.336 132.049 19.38 132.049 20.55C132.049 21.396 131.815 22.026 131.347 22.44C130.897 22.836 130.159 23.052 129.133 23.088L123.517 23.25Z" fill="#DEDEDE"/>
</svg>
